# xmcd CD database file
#
# Track frame offsets:
#	150
#	18425
#	32642
#	45540
#	63840
#	80717
#	101477
#	122232
#	138737
#	154384
#	170584
#	186875
#	205597
#	220705
#	233825
#	249627
#	265335
#	279842
#	293775
#	305957
#
# Disc length: 4332 seconds
#
# Revision: 0
# Processed by: cddbd v1.4PL0 Copyright (c) Steve Scherf et al.
# Submitted via: CDex 1.50beta10
#
DISCID=2810ea14
DTITLE=Carr, James - 24 Karat Soul
DYEAR=1900
DGENRE=Rhythmic Soul
TTITLE0=It's Sweet On The Back Street
TTITLE1=Dark End Of The Street
TTITLE2=Pouring Water On A Drowning Man
TTITLE3=I'm Into Something ...
TTITLE4=Soul Survivor
TTITLE5=Take Me To The Limit
TTITLE6=Gonna Marry My Mother In Law
TTITLE7=She's Already Gone
TTITLE8=A Man Worth Knowing
TTITLE9=Try My Love
TTITLE10=All Because Of Your Love
TTITLE11=Things A Woman Needs
TTITLE12=Hungry For Your Love
TTITLE13=Love Attack 90
TTITLE14=High On Your Love
TTITLE15=Memphis After Midnight
TTITLE16=I Can't Leave Your Love ALone
TTITLE17=That's How Strong My Woman's Love Is
TTITLE18=What's A Little Love Between Friends
TTITLE19=That's When The Blues Began
EXTD=
EXTT0=
EXTT1=
EXTT2=
EXTT3=
EXTT4=
EXTT5=
EXTT6=
EXTT7=
EXTT8=
EXTT9=
EXTT10=
EXTT11=
EXTT12=
EXTT13=
EXTT14=
EXTT15=
EXTT16=
EXTT17=
EXTT18=
EXTT19=
PLAYORDER=
